arm26_states
nRows=18
nColumns=17

# SIMM Motion File Header:
name arm26_states
datacolumns 17
datarows 18
otherdata 1
range 0.00000000000000000000 0.00131071000000000010
endheader
time	r_shoulder_elev	r_elbow_flex	r_shoulder_elev_u	r_elbow_flex_u	TRIlong.activation	TRIlong.fiber_length	TRIlat.activation	TRIlat.fiber_length	TRImed.activation	TRImed.fiber_length	BIClong.activation	BIClong.fiber_length	BICshort.activation	BICshort.fiber_length	BRA.activation	BRA.fiber_length
      0.00000000000000000000	      0.00000000000000000000	      0.00000000000000000000	      0.00000000000000000000	      0.00000000000000000000	      0.01000000000000000000	      0.13654181657517347000	      0.01000000000000000000	      0.07065119668960781500	      0.01000000000000000000	      0.06569679035788460200	      0.01000000000000000000	      0.14840752511492677000	      0.01000000000000000000	      0.14766823914201072000	      0.01000000000000000000	      0.09339079059267638100
      0.00000001000000000000	     -0.00000000000002550487	      0.00000000000009132876	     -0.00000510097289212150	      0.00001826574503707536	      0.01000000007432189400	      0.13654181657515219000	      0.01000000028287806100	      0.07065119668923684800	      0.01000000030018812800	      0.06569679035742510800	      0.01000001398825651700	      0.14840752511488509000	      0.01000000196130507500	      0.14766823914185345000	      0.01000000144787983000	      0.09339079059267463300
      0.00000003000000000000	     -0.00000000000022954383	      0.00000000000082195871	     -0.00001530291866350415	      0.00005479723507444584	      0.01000000022296535100	      0.13654181657510964000	      0.01000000084863518300	      0.07065119668849489900	      0.01000000090056532600	      0.06569679035650609300	      0.01000004196478430100	      0.14840752511479935000	      0.01000000588391886100	      0.14766823914153851000	      0.01000000434363524000	      0.09339079059267092800
      0.00000007000000000000	     -0.00000000000124973858	      0.00000000000447510832	     -0.00003570681015480904	      0.00012786021500210435	      0.01000000052025094500	      0.13654181657502443000	      0.01000000198015342000	      0.07065119668701083700	      0.01000000210132348500	      0.06569679035466788300	      0.01000009791789887400	      0.14840752511461819000	      0.01000001372916097700	      0.14766823914090701000	      0.01000001013512907000	      0.09339079059266271200
      0.00000015000000000000	     -0.00000000000573859537	      0.00000000002054896629	     -0.00007651459293147193	      0.00027398617426947135	      0.01000000111481683300	      0.13654181657485373000	      0.01000000424320587500	      0.07065119668404205900	      0.01000000450285486900	      0.06569679035099081100	      0.01000020982436405200	      0.14840752511421743000	      0.01000002941970339100	      0.14766823913963736000	      0.01000002171804876400	      0.09339079059264307500
      0.00000031000000000000	     -0.00000000002451017811	      0.00000000008776691711	     -0.00015813015766018450	      0.00056623809045561614	      0.01000000230392740800	      0.13654181657451134000	      0.01000000876937470400	      0.07065119667810185200	      0.01000000930597789100	      0.06569679034363408400	      0.01000043363823850300	      0.14840752511326213000	      0.01000006080102094000	      0.14766823913707164000	      0.01000004488361630300	      0.09339079059259100500
      0.00000063000000000000	     -0.00000000010122881959	      0.00000000036248375645	     -0.00032136128381173652	      0.00115074191345668820	      0.01000000468206377200	      0.13654181657382250000	      0.01000001782196803200	      0.07065119666621091900	      0.01000001891246496400	      0.06569679032891019600	      0.01000088126976372000	      0.14840752511073643000	      0.01000012356458691500	      0.14766823913183461000	      0.01000009121366399500	      0.09339079059243569900
      0.00000127000000000000	     -0.00000000041136800154	      0.00000000147304117203	     -0.00064782352283340424	      0.00231974952216294860	      0.01000000943799735600	      0.13654181657242859000	      0.01000003592817733800	      0.07065119664238694900	      0.01000003812640317700	      0.06569679029942064600	      0.01000177654791884800	      0.14840752510322514000	      0.01000024909544222500	      0.14766823912093824000	      0.01000018386940999600	      0.09339079059192043100
      0.00000255000000000000	     -0.00000000165845392158	      0.00000000593865084006	     -0.00130074794728564350	      0.00465776459189856320	      0.01000001894850804800	      0.13654181656957581000	      0.01000007214468625500	      0.07065119659457076700	      0.01000007655813558000	      0.06569679024027476300	      0.01000356716464337500	      0.14840752507836730000	      0.01000050017204516900	      0.14766823909745655000	      0.01000036916350575800	      0.09339079059007142400
      0.00000511000000000000	     -0.00000000665985566276	      0.00000002384784865238	     -0.00260659657810562600	      0.00933379415270668350	      0.01000003796410434500	      0.13654181656361145000	      0.01000014459406285200	      0.07065119649826689900	      0.01000015343702199400	      0.06569679012131728100	      0.01000714863971342300	      0.14840752498934362000	      0.01000100238481146900	      0.14766823904374016000	      0.01000073968212271200	      0.09339079058310115200
      0.00001023000000000000	     -0.00000002669157609005	      0.00000009557815144320	     -0.00521829293761160230	      0.01868585105566888900	      0.01000007597360307200	      0.13654181655065559000	      0.01000028955823155700	      0.07065119630298487300	      0.01000030725646284700	      0.06569678988075228200	      0.01001431255604889400	      0.14840752465432924000	      0.01000200704851457100	      0.14766823890931660000	      0.01000148044114146900	      0.09339079055608438800
      0.00002047000000000000	     -0.00000010687066230345	      0.00000038268633544726	     -0.01044168180923769000	      0.03738995674953963400	      0.01000015190587686900	      0.13654181652070038000	      0.01000057974807478500	      0.07065119590181663500	      0.01000061514186937500	      0.06569678938912347500	      0.01002864425119360200	      0.14840752335854818000	      0.01000401732803392300	      0.14766823853267758000	      0.01000296084698287100	      0.09339079044984818800
      0.00004095000000000000	     -0.00000042769121840692	      0.00000153149267322636	     -0.02088844224468598700	      0.07479814170368721800	      0.01000030342394396200	      0.13654181644513300000	      0.01000116117253576700	      0.07065119505780584300	      0.01000123189760449400	      0.06569678836467925100	      0.01005732307293400100	      0.14840751828082355000	      0.01000804169097869100	      0.14766823734959764000	      0.01000591721519218100	      0.09339079002937646100
      0.00008191000000000001	     -0.00000171117998710999	      0.00000612746338305655	     -0.04178187842106068800	      0.14961445263485013000	      0.01000060507746277500	      0.13654181623547729000	      0.01000232819058501800	      0.07065119320899521100	      0.01000246933936340200	      0.06569678615747678900	      0.01011474229494884100	      0.14840749831427325000	      0.01001610559618994200	      0.14766823327508394000	      0.01001181222012306100	      0.09339078836282609100
      0.00016383000000000001	     -0.00000684552832872423	      0.00002451283600342765	     -0.08356828650593482700	      0.29924719141870126000	      0.01000120288039063600	      0.13654181561446024000	      0.01000467882373187600	      0.07065118891498657600	      0.01000495986912719100	      0.06569678116068522500	      0.01022982587946839700	      0.14840742018558928000	      0.01003229383459144700	      0.14766821837833580000	      0.01002353164198424600	      0.09339078177685741800
      0.00032767000000000001	     -0.00002738347121721210	      0.00009805749874870039	     -0.16713821591943845000	      0.59851563592579871000	      0.01000237667901029800	      0.13654181381719291000	      0.01000944584738988800	      0.07065117830775571900	      0.01001000291894812500	      0.06569676923526360200	      0.01046096429304034000	      0.14840711922639818000	      0.01006490972653277400	      0.14766816226170240000	      0.01004669081664885300	      0.09339075596610721400
      0.00065535000000000007	     -0.00010953314512880304	      0.00039224662143115633	     -0.33425795747886050000	      1.19707969958086280000	      0.01000463869548177600	      0.13654180990097375000	      0.01001923795426474000	      0.07065115182632379600	      0.01002033229457776300	      0.06569674069619214900	      0.01092705269228159400	      0.14840599831340923000	      0.01013108107612887600	      0.14766794980452899000	      0.01009191162694775600	      0.09339065642470106800
      0.00131071000000000010	     -0.00043808027367708987	      0.00156908172506094790	     -0.66834512494379961000	      2.39437747668483110000	      0.01000883319381681800	      0.13654181273557134000	      0.01003981584401556100	      0.07065109847002654100	      0.01004192779668527200	      0.06569668706156572800	      0.01187390621002774400	      0.14840208725226001000	      0.01026704163742678400	      0.14766716052257467000	      0.01017812709833602000	      0.09339028217358896800
